<svg width="360" height="490" viewBox="0 0 360 490" fill="none" xmlns="http://www.w3.org/2000/svg">
<g filter="url(#filter0_d_51_104)">
<rect x="20" y="16" width="320" height="450" fill="#F6F6F6"/>
</g>
<path d="M179.173 238.379C188.705 238.379 196.958 234.961 203.702 228.216C210.446 221.472 213.864 213.221 213.864 203.689C213.864 194.159 210.446 185.907 203.701 179.161C196.956 172.419 188.704 169 179.173 169C169.641 169 161.389 172.419 154.646 179.162C147.902 185.906 144.482 194.158 144.482 203.689C144.482 213.221 147.902 221.474 154.647 228.217C161.392 234.96 169.644 238.379 179.173 238.379Z" fill="#070707"/>
<path d="M239.873 279.751C239.678 276.945 239.285 273.883 238.706 270.651C238.121 267.394 237.369 264.315 236.468 261.5C235.537 258.592 234.271 255.719 232.706 252.967C231.082 250.11 229.174 247.622 227.034 245.575C224.795 243.433 222.055 241.711 218.886 240.455C215.728 239.206 212.228 238.573 208.484 238.573C207.014 238.573 205.592 239.176 202.846 240.964C201.156 242.066 199.179 243.341 196.973 244.751C195.086 245.953 192.53 247.079 189.373 248.099C186.293 249.095 183.165 249.601 180.079 249.601C176.992 249.601 173.866 249.095 170.782 248.099C167.629 247.08 165.073 245.954 163.188 244.752C161.003 243.355 159.025 242.08 157.309 240.963C154.567 239.175 153.144 238.572 151.673 238.572C147.928 238.572 144.43 239.206 141.273 240.456C138.106 241.71 135.364 243.432 133.124 245.576C130.984 247.624 129.075 250.111 127.454 252.967C125.89 255.719 124.624 258.591 123.692 261.502C122.792 264.316 122.039 267.394 121.455 270.651C120.876 273.879 120.482 276.941 120.288 279.755C120.097 282.51 120 285.371 120 288.26C120 295.778 122.39 301.865 127.103 306.353C131.758 310.783 137.917 313.03 145.407 313.03H214.757C222.247 313.03 228.404 310.784 233.06 306.353C237.774 301.868 240.164 295.78 240.164 288.259C240.163 285.357 240.065 282.494 239.873 279.751Z" fill="#070707"/>
<defs>
<filter id="filter0_d_51_104" x="0" y="0" width="360" height="490" filterUnits="userSpaceOnUse" color-interpolation-filters="sRGB">
<feFlood flood-opacity="0" result="BackgroundImageFix"/>
<feColorMatrix in="SourceAlpha" type="matrix" values="0 0 0 0 0 0 0 0 0 0 0 0 0 0 0 0 0 0 127 0" result="hardAlpha"/>
<feOffset dy="4"/>
<feGaussianBlur stdDeviation="10"/>
<feColorMatrix type="matrix" values="0 0 0 0 0 0 0 0 0 0 0 0 0 0 0 0 0 0 0.25 0"/>
<feBlend mode="normal" in2="BackgroundImageFix" result="effect1_dropShadow_51_104"/>
<feBlend mode="normal" in="SourceGraphic" in2="effect1_dropShadow_51_104" result="shape"/>
</filter>
</defs>
</svg>
